<?xml version="1.0" encoding="UTF-8"?>
<svg xmlns="http://www.w3.org/2000/svg" xmlns:xlink="http://www.w3.org/1999/xlink" width="400px" height="400px" viewBox="0 0 400 490" version="1.1">
<g id="surface1">
<path style=" stroke:none;fill-rule:nonzero;fill:rgb(0%,0%,0%);fill-opacity:1;" d="M 138.636719 202.433594 C 136.832031 200.632812 136.832031 197.699219 138.636719 195.898438 L 144.660156 189.886719 C 146.460938 188.085938 149.390625 188.085938 151.207031 189.886719 C 153.011719 191.6875 153.011719 194.625 151.207031 196.425781 L 145.183594 202.433594 C 143.378906 204.234375 140.453125 204.234375 138.636719 202.433594 Z M 123.75 223.832031 L 129.773438 217.820312 C 131.578125 216.019531 131.578125 213.082031 129.773438 211.28125 C 127.96875 209.480469 125.042969 209.480469 123.222656 211.28125 L 117.203125 217.292969 C 115.398438 219.09375 115.398438 222.03125 117.203125 223.832031 C 119.003906 225.628906 121.929688 225.628906 123.75 223.832031 Z M 144.660156 223.832031 C 146.460938 225.628906 149.390625 225.628906 151.207031 223.832031 C 153.011719 222.03125 153.011719 219.09375 151.207031 217.292969 L 145.183594 211.28125 C 143.378906 209.480469 140.453125 209.480469 138.636719 211.28125 C 136.832031 213.082031 136.832031 216.019531 138.636719 217.820312 Z M 123.222656 202.433594 C 125.027344 204.234375 127.953125 204.234375 129.773438 202.433594 C 131.578125 200.632812 131.578125 197.699219 129.773438 195.898438 L 123.75 189.886719 C 121.945312 188.085938 119.019531 188.085938 117.203125 189.886719 C 115.398438 191.6875 115.398438 194.625 117.203125 196.425781 Z M 313.097656 264.421875 C 314.902344 266.222656 317.839844 266.222656 319.644531 264.421875 L 325.667969 258.410156 C 327.472656 256.609375 327.472656 253.675781 325.667969 251.875 C 323.863281 250.074219 320.9375 250.074219 319.121094 251.875 L 313.097656 257.886719 C 311.292969 259.6875 311.292969 262.621094 313.097656 264.421875 Z M 297.683594 273.269531 L 291.664062 279.28125 C 289.859375 281.082031 289.859375 284.015625 291.664062 285.816406 C 293.464844 287.617188 296.40625 287.617188 298.210938 285.816406 L 304.234375 279.804688 C 306.039062 278.003906 306.039062 275.070312 304.234375 273.269531 C 302.429688 271.46875 299.503906 271.46875 297.683594 273.269531 Z M 319.632812 273.269531 C 317.828125 271.46875 314.902344 271.46875 313.082031 273.269531 C 311.277344 275.070312 311.277344 278.003906 313.082031 279.804688 L 319.105469 285.816406 C 320.910156 287.617188 323.835938 287.617188 325.652344 285.816406 C 327.457031 284.015625 327.457031 281.082031 325.652344 279.28125 Z M 298.195312 251.875 C 296.394531 250.074219 293.464844 250.074219 291.648438 251.875 C 289.84375 253.675781 289.84375 256.609375 291.648438 258.410156 L 297.671875 264.421875 C 299.476562 266.222656 302.402344 266.222656 304.21875 264.421875 C 306.023438 262.621094 306.023438 259.6875 304.21875 257.886719 Z M 218.507812 84.21875 L 224.53125 78.207031 C 226.335938 76.40625 226.335938 73.472656 224.53125 71.671875 C 222.726562 69.871094 219.800781 69.871094 217.984375 71.671875 L 211.960938 77.683594 C 210.15625 79.484375 210.15625 82.417969 211.960938 84.21875 C 213.765625 86.019531 216.691406 86.019531 218.507812 84.21875 Z M 197.074219 105.613281 L 203.097656 99.601562 C 204.902344 97.800781 204.902344 94.867188 203.097656 93.066406 C 201.292969 91.265625 198.367188 91.265625 196.550781 93.066406 L 190.527344 99.078125 C 188.722656 100.878906 188.722656 103.8125 190.527344 105.613281 C 192.332031 107.414062 195.257812 107.414062 197.074219 105.613281 Z M 217.984375 105.613281 C 219.789062 107.414062 222.714844 107.414062 224.53125 105.613281 C 226.335938 103.8125 226.335938 100.878906 224.53125 99.078125 L 218.511719 93.066406 C 216.707031 91.265625 213.78125 91.265625 211.960938 93.066406 C 210.15625 94.867188 210.15625 97.800781 211.960938 99.601562 Z M 196.550781 84.21875 C 198.351562 86.019531 201.28125 86.019531 203.097656 84.21875 C 204.902344 82.417969 204.902344 79.484375 203.097656 77.683594 L 197.074219 71.671875 C 195.269531 69.871094 192.34375 69.871094 190.527344 71.671875 C 188.722656 73.472656 188.722656 76.40625 190.527344 78.207031 Z M 297.273438 237.257812 L 272.203125 236.476562 C 269.320312 236.40625 266.621094 237.753906 264.984375 240.148438 L 250.894531 260.851562 C 242.527344 273.15625 223.523438 270.207031 219.347656 255.859375 L 216.789062 247.097656 L 112.460938 358.070312 C 103.582031 367.46875 88.738281 367.652344 79.648438 358.566406 C 70.527344 349.464844 70.769531 334.632812 80.171875 325.828125 L 191.363281 221.691406 L 182.558594 219.140625 C 168.226562 214.984375 165.199219 196.027344 177.558594 187.648438 L 198.296875 173.585938 C 200.683594 171.96875 202.0625 169.273438 201.976562 166.382812 L 201.195312 141.371094 C 200.726562 126.46875 217.855469 117.75 229.660156 126.894531 L 249.476562 142.234375 C 251.761719 144.007812 254.746094 144.476562 257.472656 143.496094 L 281.066406 135.019531 C 295.128906 129.972656 308.722656 143.539062 303.652344 157.5625 L 295.15625 181.113281 C 294.175781 183.835938 294.644531 186.8125 296.421875 189.09375 L 311.792969 208.875 C 320.953125 220.671875 312.160156 237.824219 297.289062 237.285156 Z M 213.792969 236.777344 L 212.34375 231.828125 C 211.535156 229.0625 209.402344 226.921875 206.621094 226.113281 L 201.675781 224.683594 L 86.492188 332.566406 C 80.894531 337.796875 80.753906 346.628906 86.179688 352.03125 C 91.804688 357.648438 100.609375 357.121094 105.710938 351.734375 L 213.777344 236.777344 Z M 304.460938 214.515625 L 289.09375 194.738281 C 285.371094 189.945312 284.375 183.679688 286.4375 177.964844 L 294.929688 154.414062 C 297.34375 147.722656 290.882812 141.285156 284.179688 143.683594 L 260.585938 152.160156 C 254.875 154.214844 248.59375 153.222656 243.78125 149.507812 L 223.964844 134.167969 C 218.296875 129.785156 210.199219 133.984375 210.414062 141.058594 L 211.195312 166.070312 C 211.378906 172.136719 208.496094 177.792969 203.46875 181.195312 L 182.730469 195.261719 C 176.835938 199.261719 178.269531 208.261719 185.101562 210.25 L 209.179688 217.222656 C 215.015625 218.910156 219.503906 223.40625 221.210938 229.234375 L 228.199219 253.265625 C 230.1875 260.097656 239.207031 261.515625 243.210938 255.632812 L 257.304688 234.933594 C 260.726562 229.914062 266.394531 227.007812 272.460938 227.21875 L 297.515625 228 C 304.761719 228.183594 308.738281 220.03125 304.417969 214.472656 Z M 304.460938 214.515625 "/>
</g>
</svg>
