<?xml version="1.0" encoding="utf-8"?>
<svg xmlns="http://www.w3.org/2000/svg" version="1.1" style="shape-rendering:geometricPrecision;text-rendering:geometricPrecision;image-rendering:optimizeQuality;" viewBox="0 0 846.66 1058.325" x="0px" y="0px" fill-rule="evenodd" clip-rule="evenodd">
  <defs>
    <style type="text/css">
   
    .fil0 {fill:black;fill-rule:nonzero}
   
  </style>
  </defs>
  <g>
    <path class="fil0" d="M379.43 326.78l85.66 49.46c10.09,5.84 13.53,18.76 7.69,28.85l-210.99 365.3c-9.76,16.06 -25.06,26.9 -41.97,31.45 -17.39,4.67 -36.63,2.71 -53.47,-6.99l-0.1 -0.02c-16.81,-9.71 -28.15,-25.43 -32.82,-42.87 -4.67,-17.38 -2.7,-36.63 7.02,-53.47l210.13 -364.02c5.84,-10.09 18.76,-13.53 28.85,-7.69zm208.15 -258.93l-4.22 19.77 14.98 15.07c8.21,8.26 8.18,21.63 -0.08,29.84 -5.3,5.27 -12.7,7.14 -19.49,5.63l-20.49 -4.18 -17.38 13.96c-9.08,7.3 -22.38,5.86 -29.68,-3.22 -3.94,-4.9 -5.33,-11.03 -4.35,-16.79l3.68 -21.74 -14.36 -16.6c-7.62,-8.81 -6.66,-22.15 2.15,-29.77 5.56,-4.81 12.92,-6.2 19.5,-4.36l20.22 5.7 14.73 -13.32c8.63,-7.8 21.97,-7.14 29.77,1.49 4.71,5.21 6.33,12.13 5.02,18.52zm105.61 234.87l-6.46 30.19 22.77 22.91c8.21,8.26 8.18,21.63 -0.08,29.84 -5.3,5.27 -12.7,7.14 -19.49,5.63l-30.82 -6.29 -25.87 20.78c-9.08,7.3 -22.38,5.86 -29.68,-3.22 -3.94,-4.9 -5.33,-11.03 -4.35,-16.79l5.51 -32.41 -21.42 -24.75c-7.62,-8.81 -6.66,-22.15 2.15,-29.77 5.56,-4.81 12.92,-6.2 19.5,-4.36l30.81 8.7 22.64 -20.47c8.63,-7.8 21.97,-7.14 29.77,1.49 4.71,5.21 6.33,12.13 5.02,18.52zm-362.8 -141.1l-7.86 36.73 27.64 27.81c8.21,8.26 8.18,21.63 -0.08,29.84 -5.3,5.27 -12.7,7.14 -19.49,5.63l-37.28 -7.6 -31.17 25.02c-9.08,7.3 -22.38,5.86 -29.68,-3.22 -3.94,-4.9 -5.33,-11.03 -4.35,-16.79l6.66 -39.06 -25.85 -29.86c-7.62,-8.81 -6.66,-22.15 2.15,-29.77 5.56,-4.81 12.92,-6.2 19.5,-4.36l37.43 10.57 27.59 -24.95c8.63,-7.8 21.97,-7.14 29.77,1.49 4.71,5.21 6.33,12.13 5.02,18.52zm151.88 188.82l-85.67 -49.47c-10.09,-5.84 -13.53,-18.76 -7.69,-28.85l49.47 -85.66c5.84,-10.09 18.76,-13.53 28.85,-7.69l85.59 49.46c10.09,5.79 13.56,18.68 7.77,28.77l-49.47 85.75c-5.84,10.09 -18.76,13.53 -28.85,7.69zm-46.25 -75.46l49.1 28.35 28.38 -49.14 -49.1 -28.35 -28.38 49.14zm-10.35 127.26l-49.09 -28.35 -199.59 345.68c-3.86,6.67 -4.61,14.42 -2.72,21.47 1.79,6.71 6.01,12.78 12.2,16.69l2.19 1.29c6.38,3.22 13.61,3.76 20.24,1.98 6.61,-1.78 12.59,-5.86 16.45,-11.81l200.32 -346.95z"/>
  </g>
  <text x="0" y="861.66" fill="#000000" font-size="5px" font-weight="bold" font-family="'Helvetica Neue', Helvetica, Arial-Unicode, Arial, Sans-serif" style="white-space: pre;">Created by Wartini</text>
  <text x="0" y="866.66" fill="#000000" font-size="5px" font-weight="bold" font-family="'Helvetica Neue', Helvetica, Arial-Unicode, Arial, Sans-serif" style="white-space: pre;">from the Noun Project</text>
</svg>