<?xml version="1.0" encoding="utf-8"?>
<svg xmlns="http://www.w3.org/2000/svg" version="1.1" viewBox="-5.0 -10.0 110.0 135.0">
  <path d="m77.145 27.668c2.25 2.7969 4.0664 5.9609 5.3398 9.3828 1.3672 3.6758 2.1133 7.6484 2.1133 11.777 0 6.5547-1.8672 12.68-5.1055 17.863-2.3594 3.7812-5.4531 7.0664-9.0781 9.6523h10.02c1.3789 0 2.6367 0.56641 3.5508 1.4766 0.91406 0.91797 1.4805 2.1758 1.4805 3.5547v2.0312h3.7578c1.3789 0 2.6406 0.56641 3.5508 1.4805 0.91406 0.90625 1.4805 2.168 1.4805 3.5508v3.5273c0 0.82812-0.67188 1.5-1.5 1.5h-83.883c-0.82812 0-1.5-0.67188-1.5-1.5v-3.5273c0-1.3828 0.56641-2.6445 1.4766-3.5547l0.097656-0.089843c0.90234-0.85938 2.1211-1.3867 3.457-1.3867h3.7578v-2.0312c0-1.3828 0.56641-2.6445 1.4766-3.5508 0.91016-0.91016 2.168-1.4766 3.5547-1.4766h10.023c-3.6289-2.5859-6.7188-5.8711-9.082-9.6523-3.2344-5.1836-5.1055-11.309-5.1055-17.863 0-9.332 3.7812-17.777 9.8984-23.891 6.1133-6.1133 14.562-9.8984 23.891-9.8984 3.3164 0 6.5312 0.48438 9.5742 1.3789 2.832 0.83594 5.5156 2.0352 7.9844 3.5391 0.24219-0.16016 0.4375-0.31641 0.60547-0.48438l0.066406-0.0625c0.52344-0.55078 0.96094-1.4297 1.793-3.0859l0.92188-1.8164c0.375-0.73047 1.2734-1.0273 2.0117-0.65234 0.29297 0.14844 0.51953 0.38672 0.66016 0.66406l0.82031 1.6445c0.89453 1.8008 1.3438 2.6992 1.9062 3.2656 0.55859 0.55859 1.4297 1 3.1484 1.8594l1.8203 0.92188c0.73047 0.37891 1.0234 1.2812 0.64453 2.0156-0.14844 0.29297-0.38672 0.51562-0.66406 0.65234l-1.6445 0.82031c-1.8047 0.89453-2.7031 1.3438-3.2656 1.9062l-0.058594 0.058594zm-48.922-17.422c0.82812 0 1.5 0.67188 1.5 1.5s-0.67188 1.5-1.5 1.5h-2.2148v2.2148c0 0.82812-0.67187 1.5-1.5 1.5-0.82812 0-1.5-0.67188-1.5-1.5v-2.2148h-2.2148c-0.82812 0-1.5-0.67188-1.5-1.5s0.67188-1.5 1.5-1.5h2.2148v-2.2148c0-0.82812 0.67188-1.5 1.5-1.5 0.82813 0 1.5 0.67188 1.5 1.5v2.2148zm-9.4727 58.211c0.82812 0 1.5 0.67188 1.5 1.5s-0.67188 1.5-1.5 1.5h-2.2148v2.2148c0 0.82812-0.67188 1.5-1.5 1.5s-1.5-0.67188-1.5-1.5v-2.2148h-2.2148c-0.82812 0-1.5-0.67188-1.5-1.5s0.67188-1.5 1.5-1.5h2.2148v-2.2148c0-0.82813 0.67188-1.5 1.5-1.5s1.5 0.67187 1.5 1.5v2.2148zm73.023-37.715c0.82812 0 1.5 0.67187 1.5 1.5 0 0.82812-0.67188 1.5-1.5 1.5h-2.2148v2.2148c0 0.82812-0.67188 1.5-1.5 1.5s-1.5-0.67188-1.5-1.5v-2.2148h-2.2148c-0.82812 0-1.5-0.67188-1.5-1.5 0-0.82813 0.67188-1.5 1.5-1.5h2.2148v-2.2148c0-0.82812 0.67188-1.5 1.5-1.5s1.5 0.67188 1.5 1.5v2.2148zm-20.238 17.727 0.60156 1.207c0.61328 1.2383 0.92578 1.8555 1.2852 2.2148s0.96484 0.66406 2.1523 1.2617l1.3047 0.66016c0.73828 0.37109 1.0312 1.2734 0.66016 2.0117-0.14844 0.30078-0.39062 0.52344-0.66797 0.66406l-1.207 0.60156c-1.2383 0.61328-1.8555 0.92578-2.2148 1.2812-0.35938 0.35938-0.66406 0.96484-1.2617 2.1562l-0.65625 1.3047c-0.37109 0.73828-1.2734 1.0312-2.0117 0.66016-0.30078-0.14844-0.52344-0.39063-0.66406-0.66797l-0.60156-1.207c-0.61328-1.2383-0.92578-1.8594-1.2812-2.2148-0.35547-0.35547-0.96484-0.66406-2.1523-1.2617l-1.3047-0.66016c-0.73828-0.37109-1.0312-1.2734-0.66016-2.0117 0.14844-0.30078 0.39062-0.52344 0.66797-0.66406l1.207-0.60156c1.2383-0.61328 1.8555-0.92578 2.2148-1.2812 0.35547-0.35547 0.66406-0.96484 1.2617-2.1523l0.65625-1.3047c0.37109-0.73828 1.2734-1.0312 2.0117-0.66016 0.30078 0.14844 0.52344 0.39062 0.66406 0.66406zm-0.23828 5.543c-0.42969-0.42969-0.74219-0.89844-1.1094-1.5664-0.37109 0.69141-0.69141 1.1641-1.125 1.5977-0.42969 0.42969-0.89844 0.74219-1.5703 1.1094 0.69141 0.37109 1.168 0.69141 1.6016 1.125 0.42969 0.42969 0.74219 0.89844 1.1094 1.5664 0.37109-0.69141 0.69141-1.1641 1.125-1.5977 0.42969-0.42969 0.89844-0.74219 1.5703-1.1094-0.69141-0.37109-1.168-0.69141-1.6016-1.125zm-44.699-20.316c0.48828-0.66406 1.4258-0.80859 2.0898-0.32031s0.80859 1.4258 0.32031 2.0898l-0.85547 1.1836c-0.47266 0.67187-1.4062 0.83594-2.0781 0.35547-0.67188-0.47266-0.83594-1.4062-0.35547-2.0781zm11.023-10.402c0.69141-0.45312 1.6211-0.25781 2.0742 0.43359 0.45313 0.69141 0.25781 1.6211-0.43359 2.0742-1.3242 0.86719-2.5898 1.8047-3.7773 2.8008-1.2031 1.0039-2.3438 2.0781-3.4141 3.2148-0.56641 0.60156-1.5156 0.62891-2.1133 0.066406-0.60156-0.56641-0.62891-1.5156-0.066406-2.1133 1.1602-1.2305 2.3867-2.3867 3.6719-3.4609 1.293-1.082 2.6484-2.0898 4.0586-3.0117zm52.715 41.176 0.60156 1.207c0.61328 1.2383 0.92578 1.8555 1.2812 2.2148 0.35938 0.35938 0.96484 0.66406 2.1523 1.2617l1.3047 0.65625c0.73828 0.37109 1.0312 1.2734 0.66016 2.0117-0.14844 0.30078-0.39063 0.52344-0.66797 0.66406l-1.207 0.60156c-1.2422 0.61719-1.8672 0.92969-2.2188 1.2773-0.35547 0.35938-0.66016 0.96484-1.2578 2.1562l-0.65625 1.3047c-0.37109 0.73828-1.2734 1.0312-2.0117 0.66016-0.30078-0.14844-0.52344-0.39062-0.66406-0.66797l-0.60156-1.207c-0.61328-1.2383-0.92578-1.8555-1.2812-2.2148-0.35547-0.35547-0.96484-0.66406-2.1523-1.2617l-1.3047-0.65625c-0.73828-0.37109-1.0312-1.2734-0.66016-2.0117 0.14844-0.30078 0.39062-0.52344 0.66797-0.66406l1.207-0.60156c1.2383-0.61328 1.8555-0.92578 2.2148-1.2812 0.35937-0.35938 0.66406-0.96484 1.2617-2.1562l0.65625-1.3047c0.37109-0.73828 1.2734-1.0312 2.0117-0.66016 0.30078 0.14844 0.52344 0.39062 0.66406 0.66406zm-0.23828 5.543c-0.42969-0.42969-0.74219-0.89844-1.1094-1.5703-0.375 0.69141-0.69141 1.168-1.125 1.6016-0.42969 0.42969-0.89844 0.74219-1.5703 1.1094 0.69141 0.37109 1.168 0.69141 1.6016 1.125 0.42969 0.42969 0.74219 0.89844 1.1094 1.5664 0.37109-0.69141 0.69141-1.1641 1.125-1.5977 0.4375-0.43359 0.90234-0.74609 1.5703-1.1055-0.69141-0.375-1.168-0.69141-1.6016-1.125zm-20.984-46.992-0.007812 0.003907-0.03125 0.019531-0.019531 0.007812c-0.29297 0.16016-0.62109 0.32812-0.98438 0.51172 1.4805 0.75391 2.3359 1.2383 3.0742 1.9805 0.73438 0.73438 1.2227 1.5781 1.957 3.0312 0.75391-1.4805 1.2383-2.3359 1.9766-3.0742 0.73438-0.73438 1.5781-1.2227 3.0312-1.957-1.4805-0.75391-2.3359-1.2383-3.0742-1.9766-0.73047-0.73047-1.2227-1.5781-1.957-3.0312-0.71875 1.4102-1.1953 2.2539-1.8945 2.9805l-0.085938 0.09375c-0.53906 0.53906-1.1367 0.94531-1.9922 1.4141zm-3.8672-1.3906c-1.8008-0.95703-3.7031-1.7383-5.6953-2.3281-2.7578-0.8125-5.6875-1.25-8.7344-1.25-8.5039 0-16.199 3.4453-21.77 9.0195-5.5703 5.5664-9.0195 13.266-9.0195 21.77 0 5.9805 1.7031 11.559 4.6484 16.277 2.9844 4.7812 7.2461 8.6875 12.301 11.234h27.68c5.0508-2.5469 9.3125-6.4531 12.297-11.234 2.9453-4.7188 4.6484-10.301 4.6484-16.277 0-3.7852-0.67969-7.4023-1.918-10.734-1.0273-2.7656-2.4453-5.3438-4.1797-7.6641l-0.16406 0.32812-0.92188 1.8203c-0.37891 0.73047-1.2812 1.0234-2.0156 0.64453-0.29297-0.14844-0.51562-0.38672-0.65234-0.66406l-0.82031-1.6445c-0.89453-1.8047-1.3438-2.7031-1.9062-3.2656s-1.4336-1-3.1484-1.8594l-1.8203-0.92188c-0.73047-0.37891-1.0234-1.2812-0.64453-2.0156 0.14844-0.29297 0.38672-0.51562 0.66406-0.65234l1.1719-0.58594zm-51.539-0.94141 0.73047 1.4609c0.77734 1.5703 1.1719 2.3555 1.6406 2.8242 0.47656 0.47266 1.2344 0.85547 2.7344 1.6055l1.5977 0.80859c0.73047 0.375 1.0273 1.2734 0.65234 2.0117-0.14844 0.29297-0.38672 0.51953-0.66406 0.65625l-1.457 0.73047c-1.5625 0.77734-2.3477 1.168-2.8242 1.6445-0.47266 0.47266-0.85547 1.2344-1.6055 2.7266l-0.8125 1.6094c-0.37891 0.73047-1.2812 1.0234-2.0156 0.64453-0.29297-0.14844-0.51562-0.38672-0.65234-0.66406l-0.73047-1.4609c-0.77734-1.5703-1.1719-2.3555-1.6367-2.8242-0.47266-0.47266-1.2383-0.85547-2.7344-1.6055l-1.5977-0.80859c-0.73047-0.375-1.0273-1.2734-0.65234-2.0117 0.14844-0.29297 0.38672-0.51953 0.66406-0.65625l1.457-0.73047c1.5703-0.77734 2.3555-1.1719 2.8242-1.6406 0.47266-0.47656 0.85547-1.2344 1.6055-2.7305l0.8125-1.6094c0.37891-0.73047 1.2812-1.0234 2.0156-0.64453 0.29297 0.14844 0.51562 0.38672 0.65625 0.66016zm0.25 6.3984c-0.61328-0.61719-1.0312-1.3008-1.5977-2.4062-0.58594 1.1328-1.0039 1.8281-1.6172 2.4492-0.62109 0.61328-1.3008 1.0312-2.4102 1.5977 1.1328 0.58594 1.8281 1 2.4492 1.6172 0.61328 0.62109 1.0312 1.3047 1.5977 2.4102 0.58594-1.1367 1.0039-1.832 1.6172-2.4492 0.60938-0.60938 1.2969-1.0273 2.4062-1.5977-1.1328-0.58594-1.8281-1-2.4453-1.6211zm70.055 59.324h-71.605c-0.52734 0-1.0156 0.20312-1.3711 0.53516l-0.058594 0.0625c-0.36719 0.36719-0.59766 0.875-0.59766 1.4336v2.0273h80.883v-2.0273c0-0.55469-0.23047-1.0664-0.59766-1.4336-0.36328-0.37109-0.87109-0.59766-1.4297-0.59766zm-47.371-7.0586h-15.445c-0.55469 0-1.0664 0.23047-1.4336 0.59766-0.36719 0.36719-0.59766 0.875-0.59766 1.4297v2.0312h63.305v-2.0312c0-0.5625-0.22656-1.0664-0.59375-1.4336-0.36719-0.36719-0.875-0.59375-1.4336-0.59375z"/>
</svg>