<?xml version="1.0" encoding="utf-8"?>
<svg xmlns="http://www.w3.org/2000/svg" version="1.1" viewBox="-5.0 -10.0 110.0 135.0">
  <path d="m33.125 45.773c-0.49609-0.49609-0.49609-1.3047 0-1.8008l1.6562-1.6562c0.49609-0.49609 1.3008-0.49609 1.8008 0 0.49609 0.49609 0.49609 1.3047 0 1.8008l-1.6562 1.6562c-0.49609 0.49609-1.3008 0.49609-1.8008 0zm-4.0938 5.8945 1.6562-1.6562c0.49609-0.49609 0.49609-1.3047 0-1.8008-0.49609-0.49609-1.3008-0.49609-1.8008 0l-1.6562 1.6562c-0.49609 0.49609-0.49609 1.3047 0 1.8008 0.49609 0.49609 1.3008 0.49609 1.8008 0zm5.75 0c0.49609 0.49609 1.3008 0.49609 1.8008 0 0.49609-0.49609 0.49609-1.3047 0-1.8008l-1.6562-1.6562c-0.49609-0.49609-1.3008-0.49609-1.8008 0-0.49609 0.49609-0.49609 1.3047 0 1.8008zm-5.8945-5.8945c0.49609 0.49609 1.3008 0.49609 1.8008 0 0.49609-0.49609 0.49609-1.3047 0-1.8008l-1.6562-1.6562c-0.49609-0.49609-1.3008-0.49609-1.8008 0-0.49609 0.49609-0.49609 1.3047 0 1.8008zm52.215 17.078c0.49609 0.49609 1.3047 0.49609 1.8008 0l1.6562-1.6562c0.49609-0.49609 0.49609-1.3047 0-1.8008-0.49609-0.49609-1.3008-0.49609-1.8008 0l-1.6562 1.6562c-0.49609 0.49609-0.49609 1.3047 0 1.8008zm-4.2383 2.4375-1.6562 1.6562c-0.49609 0.49609-0.49609 1.3047 0 1.8008 0.49609 0.49609 1.3047 0.49609 1.8008 0l1.6562-1.6562c0.49609-0.49609 0.49609-1.3047 0-1.8008-0.49609-0.49609-1.3008-0.49609-1.8008 0zm6.0352 0c-0.49609-0.49609-1.3008-0.49609-1.8008 0-0.49609 0.49609-0.49609 1.3047 0 1.8008l1.6562 1.6562c0.49609 0.49609 1.3008 0.49609 1.8008 0 0.49609-0.49609 0.49609-1.3047 0-1.8008zm-5.8945-5.8945c-0.49609-0.49609-1.3008-0.49609-1.8008 0-0.49609 0.49609-0.49609 1.3047 0 1.8008l1.6562 1.6562c0.49609 0.49609 1.3008 0.49609 1.8008 0 0.49609-0.49609 0.49609-1.3047 0-1.8008zm-21.914-46.191 1.6562-1.6562c0.49609-0.49609 0.49609-1.3047 0-1.8008s-1.3008-0.49609-1.8008 0l-1.6562 1.6562c-0.49609 0.49609-0.49609 1.3047 0 1.8008 0.49609 0.49609 1.3008 0.49609 1.8008 0zm-5.8945 5.8945 1.6562-1.6562c0.49609-0.49609 0.49609-1.3047 0-1.8008-0.49609-0.49609-1.3008-0.49609-1.8008 0l-1.6562 1.6562c-0.49609 0.49609-0.49609 1.3047 0 1.8008 0.49609 0.49609 1.3008 0.49609 1.8008 0zm5.75 0c0.49609 0.49609 1.3008 0.49609 1.8008 0 0.49609-0.49609 0.49609-1.3047 0-1.8008l-1.6562-1.6562c-0.49609-0.49609-1.3008-0.49609-1.8008 0-0.49609 0.49609-0.49609 1.3047 0 1.8008zm-5.8945-5.8945c0.49609 0.49609 1.3008 0.49609 1.8008 0 0.49609-0.49609 0.49609-1.3047 0-1.8008l-1.6562-1.6562c-0.49609-0.49609-1.3008-0.49609-1.8008 0-0.49609 0.49609-0.49609 1.3047 0 1.8008zm27.699 42.164-6.8945-0.21484c-0.79297-0.019532-1.5352 0.35156-1.9844 1.0117l-3.875 5.7031c-2.3008 3.3906-7.5273 2.5781-8.6758-1.375l-0.70312-2.4141-28.691 30.574c-2.4414 2.5898-6.5234 2.6406-9.0234 0.13672-2.5078-2.5078-2.4414-6.5938 0.14453-9.0195l30.578-28.691-2.4219-0.70312c-3.9414-1.1445-4.7734-6.3672-1.375-8.6758l5.7031-3.875c0.65625-0.44531 1.0352-1.1875 1.0117-1.9844l-0.21484-6.8906c-0.12891-4.1055 4.582-6.5078 7.8281-3.9883l5.4492 4.2266c0.62891 0.48828 1.4492 0.61719 2.1992 0.34766l6.4883-2.3359c3.8672-1.3906 7.6055 2.3477 6.2109 6.2109l-2.3359 6.4883c-0.26953 0.75-0.14062 1.5703 0.34766 2.1992l4.2266 5.4492c2.5195 3.25 0.10156 7.9766-3.9883 7.8281zm-22.957-0.13281-0.39844-1.3633c-0.22266-0.76172-0.80859-1.3516-1.5742-1.5742l-1.3594-0.39453-31.676 29.723c-1.5391 1.4414-1.5781 3.875-0.085937 5.3633 1.5469 1.5469 3.9688 1.4023 5.3711-0.082031l29.719-31.672zm24.934-6.1328-4.2266-5.4492c-1.0234-1.3203-1.2969-3.0469-0.73047-4.6211l2.3359-6.4883c0.66406-1.8438-1.1133-3.6172-2.957-2.957l-6.4883 2.3359c-1.5703 0.56641-3.2969 0.29297-4.6211-0.73047l-5.4492-4.2266c-1.5586-1.207-3.7852-0.050782-3.7266 1.8984l0.21484 6.8906c0.050781 1.6719-0.74219 3.2305-2.125 4.168l-5.7031 3.875c-1.6211 1.1016-1.2266 3.582 0.65234 4.1289l6.6211 1.9219c1.6055 0.46484 2.8398 1.7031 3.3086 3.3086l1.9219 6.6211c0.54688 1.8828 3.0273 2.2734 4.1289 0.65234l3.875-5.7031c0.94141-1.3828 2.5-2.1836 4.168-2.125l6.8906 0.21484c1.9922 0.050782 3.0859-2.1953 1.8984-3.7266z"/>
</svg>