 <svg  version="1.0" xmlns="http://www.w3.org/2000/svg"  width="900.000000pt" height="900.000000pt" viewBox="0 0 900.000000 900.000000"  preserveAspectRatio="xMidYMid meet">  <g transform="translate(0.000000,900.000000) scale(0.100000,-0.100000)" fill="#ffffff" stroke="none"> <path d="M4463 8579 c-36 -23 -50 -66 -38 -118 7 -32 60 -71 96 -71 10 0 19 -4 19 -10 0 -18 -51 -10 -102 15 -28 14 -53 23 -55 21 -12 -11 20 -75 47 -94 22 -17 43 -22 89 -22 52 0 65 4 90 28 16 15 32 42 36 60 6 27 4 32 -13 32 -11 0 -22 -7 -26 -15 -6 -17 -56 -21 -56 -5 0 6 5 10 10 10 26 0 50 41 50 86 0 39 -5 51 -31 75 -37 34 -71 37 -116 8z"/> <path d="M4497 7934 c-10 -205 -8 -687 3 -704 7 -12 12 -12 22 -2 28 28 18 806 -11 835 -4 4 -11 -54 -14 -129z"/> <path d="M4496 7084 c-3 -9 -6 -23 -6 -33 0 -36 -47 -65 -116 -72 -36 -3 -68 -10 -72 -14 -12 -12 29 -34 75 -41 51 -7 110 -52 115 -86 5 -34 25 -32 44 4 27 54 54 78 89 78 43 0 95 19 95 35 0 13 -43 25 -89 25 -38 0 -68 24 -90 75 -21 47 -35 56 -45 29z"/> <path d="M4512 6671 c-26 -16 -62 -1013 -39 -1093 9 -33 45 -47 62 -24 29 39 29 1073 1 1111 -7 9 -16 11 -24 6z"/> <path d="M4550 5232 c-118 -17 -201 -71 -250 -164 -30 -57 -28 -183 4 -246 24 -47 78 -105 126 -134 45 -27 124 -39 183 -27 56 12 162 73 152 88 -3 5 -20 13 -38 16 -17 4 -48 16 -69 26 -125 63 -127 244 -3 310 19 11 51 19 70 19 46 0 46 20 0 57 -37 30 -135 61 -175 55z"/> <path d="M2637 5180 c-4 -14 -7 -43 -7 -65 0 -43 -28 -113 -51 -131 -8 -7 -29 -15 -46 -19 -28 -6 -31 -9 -23 -25 6 -11 26 -22 46 -26 27 -5 39 -14 54 -45 11 -21 20 -58 21 -81 0 -48 12 -87 22 -72 3 6 13 44 23 85 16 74 36 109 60 109 7 0 25 11 41 24 l27 24 -36 10 c-56 15 -74 39 -93 122 -9 41 -20 84 -24 95 -7 18 -8 17 -14 -5z"/> <path d="M1190 5063 c0 -9 8 -25 18 -36 12 -14 17 -36 17 -82 0 -46 -5 -68 -17 -82 -27 -30 -22 -45 13 -41 49 5 92 63 91 123 -1 55 -37 108 -84 124 -39 14 -38 14 -38 -6z"/> <path d="M1064 5030 c-58 -23 -73 -109 -26 -152 15 -14 37 -29 49 -32 32 -10 91 21 110 57 13 26 13 36 2 69 -19 58 -76 82 -135 58z"/> <path d="M3355 4989 c-358 -12 -439 -19 -443 -41 -2 -9 5 -21 16 -27 12 -6 220 -13 555 -17 492 -7 538 -6 561 10 33 21 33 41 -1 63 -23 16 -54 18 -223 19 -107 1 -316 -2 -465 -7z"/> <path d="M1775 4960 c-130 -5 -132 -7 -20 -26 47 -8 545 -22 588 -17 27 4 37 10 37 23 0 10 -7 21 -16 24 -18 7 -394 5 -589 -4z"/> </g> </svg> 