<?xml version="1.0" encoding="UTF-8"?>
<svg version="1.1" xmlns="http://www.w3.org/2000/svg" width="48" height="59">
<path d="M0 0 C3.96 0.33 7.92 0.66 12 1 C12.80044424 5.00222119 13.44549838 8.96005961 14 13 C12.576875 13.4021875 12.576875 13.4021875 11.125 13.8125 C7.74732727 14.74986588 7.74732727 14.74986588 6 18 C4.93265625 17.56880859 4.93265625 17.56880859 3.84375 17.12890625 C2.9053125 17.08636719 1.966875 17.04382813 1 17 C-1.08902449 18.94195236 -2.74751225 20.72602737 -4.5 22.9375 C-9.25753132 28.90107217 -9.25753132 28.90107217 -12.84375 29.37890625 C-13.91109375 29.19134766 -13.91109375 29.19134766 -15 29 C-15.75 27.3125 -15.75 27.3125 -16 25 C-13.3477965 20.73341176 -9.53518226 17.88123591 -5.609375 14.84375 C-3.73595285 13.06374813 -3.73595285 13.06374813 -3.765625 10.28125 C-3.84296875 9.5284375 -3.9203125 8.775625 -4 8 C-2.68 7.34 -1.36 6.68 0 6 C0 4.02 0 2.04 0 0 Z M2 2 C1.896875 2.763125 1.79375 3.52625 1.6875 4.3125 C0.95635961 7.17059424 0.23048087 8.15742885 -2 10 C-1.401875 10.2475 -0.80375 10.495 -0.1875 10.75 C2.28647521 12.16370012 3.43370255 13.65055383 5 16 C5.66 15.01 6.32 14.02 7 13 C9.625 12.3125 9.625 12.3125 12 12 C11.67 9.03 11.34 6.06 11 3 C10.071875 3.020625 9.14375 3.04125 8.1875 3.0625 C5 3 5 3 2 2 Z M-3.27734375 15.08203125 C-4.15519531 15.98308594 -5.03304688 16.88414063 -5.9375 17.8125 C-6.81277344 18.70582031 -7.68804688 19.59914063 -8.58984375 20.51953125 C-9.38519531 21.33808594 -10.18054688 22.15664063 -11 23 C-11.99785178 24.00214362 -12.99669424 25.00331672 -14 26 C-9.9774633 26.44857418 -9.9774633 26.44857418 -7.7109375 23.91796875 C-6.94007812 23.01691406 -6.16921875 22.11585937 -5.375 21.1875 C-4.59898438 20.29417969 -3.82296875 19.40085937 -3.0234375 18.48046875 C-0.91609226 15.97826696 -0.91609226 15.97826696 1 13 C-1.26825704 12.7750835 -1.26825704 12.7750835 -3.27734375 15.08203125 Z " fill="#FFFFFF" transform="translate(24,15)"/>
<path d="M0 0 C1.98 0 3.96 0 6 0 C6 1.65 6 3.3 6 5 C4.35 5 2.7 5 1 5 C0.67 3.35 0.34 1.7 0 0 Z " fill="#FFFFFF" transform="translate(34,30)"/>
<path d="M0 0 C2.475 0.495 2.475 0.495 5 1 C4.67 2.65 4.34 4.3 4 6 C2.68 6 1.36 6 0 6 C0 4.02 0 2.04 0 0 Z " fill="#FFFFFF" transform="translate(14,22)"/>
<path d="M0 0 C1.32 0 2.64 0 4 0 C4 1.98 4 3.96 4 6 C2.35 5.67 0.7 5.34 -1 5 C-0.67 3.35 -0.34 1.7 0 0 Z " fill="#FFFFFF" transform="translate(23,8)"/>
</svg>
