<?xml version="1.0" encoding="UTF-8"?>
<svg xmlns="http://www.w3.org/2000/svg" xmlns:xlink="http://www.w3.org/1999/xlink" width="128px" height="128px" viewBox="0 0 128 157" version="1.1">
<g id="surface1">
<path style=" stroke:none;fill-rule:nonzero;fill:rgb(100%,100%,100%);fill-opacity:1;" d="M 64 39.914062 C 74.558594 40.792969 85.121094 41.671875 96 42.578125 C 98.132812 53.226562 99.855469 63.757812 101.332031 74.507812 C 97.539062 75.578125 97.539062 75.578125 93.667969 76.671875 C 84.660156 79.164062 84.660156 79.164062 80 87.8125 C 77.152344 86.667969 77.152344 86.667969 74.25 85.496094 C 71.746094 85.382812 69.246094 85.269531 66.667969 85.152344 C 61.097656 90.320312 56.671875 95.066406 52 100.953125 C 39.3125 116.820312 39.3125 116.820312 29.75 118.09375 C 26.902344 117.59375 26.902344 117.59375 24 117.085938 C 22 112.59375 22 112.59375 21.332031 106.441406 C 28.40625 95.085938 38.574219 87.496094 49.042969 79.414062 C 54.039062 74.679688 54.039062 74.679688 53.957031 67.273438 C 53.753906 65.269531 53.546875 63.265625 53.332031 61.203125 C 56.851562 59.445312 60.375 57.691406 64 55.882812 C 64 50.613281 64 45.34375 64 39.914062 Z M 69.332031 45.238281 C 69.058594 47.269531 68.785156 49.296875 68.5 51.390625 C 66.550781 58.996094 64.613281 61.621094 58.667969 66.527344 C 60.261719 67.183594 61.855469 67.84375 63.5 68.519531 C 70.097656 72.28125 73.15625 76.238281 77.332031 82.492188 C 79.09375 79.855469 80.851562 77.222656 82.667969 74.507812 C 89.667969 72.679688 89.667969 72.679688 96 71.847656 C 95.121094 63.945312 94.238281 56.042969 93.332031 47.898438 C 90.859375 47.953125 88.382812 48.007812 85.832031 48.066406 C 77.332031 47.898438 77.332031 47.898438 69.332031 45.238281 Z M 55.261719 80.046875 C 52.917969 82.445312 50.578125 84.84375 48.167969 87.316406 C 45.832031 89.691406 43.5 92.070312 41.09375 94.519531 C 38.972656 96.695312 36.851562 98.875 34.667969 101.117188 C 32.003906 103.785156 29.34375 106.449219 26.667969 109.101562 C 37.394531 110.296875 37.394531 110.296875 43.4375 103.5625 C 45.492188 101.164062 47.546875 98.765625 49.667969 96.296875 C 51.734375 93.917969 53.804688 91.542969 55.9375 89.09375 C 61.558594 82.433594 61.558594 82.433594 66.667969 74.507812 C 60.617188 73.910156 60.617188 73.910156 55.261719 80.046875 Z M 55.261719 80.046875 "/>
<path style=" stroke:none;fill-rule:nonzero;fill:rgb(100%,100%,100%);fill-opacity:1;" d="M 90.667969 79.832031 C 95.945312 79.832031 101.226562 79.832031 106.667969 79.832031 C 106.667969 84.222656 106.667969 88.613281 106.667969 93.136719 C 102.265625 93.136719 97.867188 93.136719 93.332031 93.136719 C 92.453125 88.746094 91.574219 84.355469 90.667969 79.832031 Z M 90.667969 79.832031 "/>
<path style=" stroke:none;fill-rule:nonzero;fill:rgb(100%,100%,100%);fill-opacity:1;" d="M 37.332031 58.542969 C 43.933594 59.859375 43.933594 59.859375 50.667969 61.203125 C 49.785156 65.59375 48.90625 69.984375 48 74.507812 C 44.480469 74.507812 40.960938 74.507812 37.332031 74.507812 C 37.332031 69.238281 37.332031 63.972656 37.332031 58.542969 Z M 37.332031 58.542969 "/>
<path style=" stroke:none;fill-rule:nonzero;fill:rgb(100%,100%,100%);fill-opacity:1;" d="M 61.332031 21.289062 C 64.851562 21.289062 68.375 21.289062 72 21.289062 C 72 26.558594 72 31.824219 72 37.253906 C 67.601562 36.375 63.199219 35.496094 58.667969 34.59375 C 59.546875 30.203125 60.425781 25.8125 61.332031 21.289062 Z M 61.332031 21.289062 "/>
</g>
</svg>
