<?xml version="1.0" encoding="utf-8"?>
<svg xmlns="http://www.w3.org/2000/svg" version="1.1" viewBox="-5.0 -10.0 110.0 135.0">
  <path d="m56.238 100c-4.3359 0-8.7305-0.58594-13.062-1.6992-13.004-3.5156-23.902-11.949-30.637-23.785-13.941-24.312-5.625-55.477 18.395-69.539 3.6328-2.1094 7.4414-3.75 11.422-4.9805 0.58594-0.11719 1.2305 0.11719 1.582 0.70313 0.29297 0.52734 0.23438 1.1719-0.23438 1.582-15.641 15.406-18.98 39.484-8.0859 58.582 10.895 19.098 33.215 28.297 54.188 22.32 0.58594-0.17578 1.2305 0.058594 1.5234 0.64453 0.35156 0.52734 0.29297 1.2305-0.23438 1.6406-2.9297 2.8125-6.2695 5.4492-9.9023 7.5586-7.6758 4.6289-16.285 6.9727-24.957 6.9727zm-23.961-92.676c-22.789 13.355-30.578 42.824-17.398 65.848 6.3281 11.129 16.695 19.098 29.059 22.438 12.301 3.2812 25.074 1.5234 36.027-4.8047 1.875-1.1133 3.6914-2.3438 5.3906-3.6328-20.504 3.457-41.359-6.2109-52.02-24.84-10.543-18.629-8.4375-41.652 4.8047-57.82-1.9922 0.82031-3.9844 1.7578-5.8594 2.8125z" fill-rule="evenodd" style="fill: currentcolor;"/>
  <path d="m38.547 90.332c-0.17578 0-0.41016 0-0.58594-0.11719-8.6133-3.8672-15.699-10.309-20.387-18.629-0.41016-0.64453-0.17578-1.4648 0.46875-1.8164 0.64453-0.41016 1.4648-0.17578 1.875 0.46875 4.5117 7.793 11.129 13.824 19.215 17.457 0.64453 0.35156 0.99609 1.1719 0.64453 1.8164-0.17578 0.58594-0.64453 0.82031-1.2305 0.82031z" fill-rule="evenodd" style="fill: currentcolor;"/>
  <path d="m73.461 33.215c-0.58594 0-1.0547-0.35156-1.2891-0.87891l-3.5742-9.1992-9.1992-3.6914c-0.52734-0.23437-0.9375-0.70312-0.9375-1.2891s0.35156-1.0547 0.9375-1.2891l9.1992-3.5742 3.5742-9.1992c0.23438-0.46875 0.70312-0.87891 1.2891-0.87891 0.58594 0 1.0547 0.29297 1.2891 0.87891l3.5742 9.1992 9.1992 3.5742c0.52734 0.23437 0.87891 0.70312 0.87891 1.2891s-0.29297 1.0547-0.87891 1.2891l-9.1992 3.6914-3.5742 9.1992c-0.23438 0.46875-0.70312 0.87891-1.2891 0.87891zm-9.8438-14.996 6.5039 2.6367c0.35156 0.17578 0.64453 0.41016 0.76172 0.70312l2.5195 6.5625 2.5195-6.5625c0.11719-0.29297 0.41016-0.64453 0.70312-0.70312l6.5039-2.6367-6.5039-2.5195c-0.29297-0.11719-0.64453-0.41016-0.82031-0.76172l-2.5195-6.5625-2.5195 6.5625c-0.17578 0.29297-0.41016 0.64453-0.82031 0.76172z" fill-rule="evenodd" style="fill: currentcolor;"/>
  <path d="m50.203 56.062c-0.58594 0-1.0547-0.29297-1.2891-0.87891l-3.6914-9.1992-9.1992-3.6328c-0.46875-0.29297-0.87891-0.76172-0.87891-1.3477 0-0.52734 0.29297-1.0547 0.87891-1.2891l9.1992-3.5742 3.6914-9.1992c0.23438-0.46875 0.70313-0.87891 1.2891-0.87891s1.0547 0.29297 1.2891 0.87891l3.5742 9.1992 9.1406 3.75c0.46875 0.23438 0.87891 0.70312 0.87891 1.2891 0 0.58594-0.35156 1.0547-0.87891 1.2891l-9.1992 3.6914-3.5742 9.1992c-0.17578 0.41016-0.64453 0.70312-1.2305 0.70312zm-9.9609-14.938 6.5039 2.5781c0.35156 0.17578 0.70312 0.41016 0.76172 0.76172l2.5781 6.5039 2.5195-6.5039c0.17578-0.35156 0.41016-0.64453 0.76172-0.76172l6.5039-2.5781-6.5039-2.5195c-0.35156-0.17578-0.64453-0.41016-0.82031-0.82031l-2.5195-6.5039-2.5781 6.5039c-0.17578 0.29297-0.41016 0.64453-0.76172 0.70312z" fill-rule="evenodd" style="fill: currentcolor;"/>
  <path d="m79.145 74.398c-0.58594 0-1.0547-0.35156-1.2891-0.9375l-3.5742-9.1992-9.1992-3.5742c-0.46875-0.23438-0.87891-0.70312-0.87891-1.2891 0-0.58594 0.29297-1.0547 0.87891-1.2891l9.1992-3.5742 3.6328-9.1992c0.23438-0.46875 0.76172-0.87891 1.3477-0.87891 0.52734 0 1.0547 0.29297 1.2891 0.87891l3.5742 9.1992 9.1992 3.6328c0.46875 0.23438 0.87891 0.76172 0.87891 1.3477 0 0.52734-0.35156 1.0547-0.87891 1.2891l-9.3164 3.457-3.5742 9.1992c-0.23438 0.52734-0.70312 0.9375-1.2891 0.9375zm-9.8438-14.879 6.5039 2.5195c0.35156 0.11719 0.64453 0.41016 0.76172 0.70313l2.5781 6.5039 2.5195-6.5039c0.17578-0.29297 0.41016-0.64453 0.82031-0.82031l6.5039-2.5195-6.5039-2.5781c-0.29297-0.17578-0.64453-0.41016-0.70312-0.76172l-2.5195-6.5039-2.6367 6.5039c-0.17578 0.35156-0.41016 0.64453-0.70312 0.76172z" fill-rule="evenodd" style="fill: currentcolor;"/>
  <animate attributeName="color-interpolation" values="sRGB;sRGB" begin="2.95s" dur="5.37s" fill="freeze" calcMode="discrete" keyTimes="0; 1"/>
  <animate attributeName="overflow" values="visible;visible" begin="2s" dur="6.43s" fill="freeze" calcMode="discrete" keyTimes="0; 1"/>
</svg>